<?xml version="1.0" standalone="no"?>
<!DOCTYPE svg PUBLIC "-//W3C//DTD SVG 20010904//EN"
 "http://www.w3.org/TR/2001/REC-SVG-20010904/DTD/svg10.dtd">
<svg version="1.0" xmlns="http://www.w3.org/2000/svg"
 width="260.000000pt" height="260.000000pt" viewBox="0 0 260.000000 260.000000"
 preserveAspectRatio="xMidYMid meet">
<metadata>
Created by potrace 1.11, written by Peter Selinger 2001-2013
</metadata>
<g transform="translate(0.000000,260.000000) scale(0.100000,-0.100000)"
fill="#000000" stroke="none">
<path d="M1080 2570 c-546 -102 -952 -512 -1053 -1063 -27 -145 -18 -375 21
-537 61 -253 240 -534 436 -685 21 -17 44 -35 50 -40 48 -45 227 -140 336
-179 152 -55 218 -65 435 -65 259 0 359 20 562 114 289 135 539 402 654 700
66 170 73 210 76 450 2 189 0 232 -17 306 -37 164 -92 292 -185 434 -201 306
-500 501 -875 571 -19 3 -105 8 -190 9 -117 2 -178 -1 -250 -15z"/>
</g>
</svg>
